<svg xmlns="http://www.w3.org/2000/svg" viewBox="0 0 1024 1024" style="background:white"><path d="M 790 702 L 790 704 L 791 705 L 791 706 L 792 707 L 792 708 L 793 709 L 793 711 L 794 712 L 794 713 L 795 714 L 795 715 L 796 716 L 796 718 L 797 719 L 797 720 L 798 721 L 798 722 L 799 723 L 799 724 L 800 725 L 800 727 L 801 728 L 801 729 L 802 730 L 802 731 L 803 732 L 803 734 L 804 735 L 804 736 L 805 737 L 805 738 L 806 739 L 806 741 L 807 742 L 807 743 L 808 744 L 808 745 L 809 746 L 809 748 L 810 749 L 810 750 L 811 751 L 811 752 L 812 753 L 812 755 L 813 756 L 813 757 L 814 758 L 814 759 L 815 760 L 815 762 L 816 763 L 816 764 L 817 765 L 817 766 L 818 767 L 818 769 L 819 770 L 819 771 L 820 772 L 820 773 L 821 774 L 821 776 L 822 777 L 822 779 L 821 780 L 821 782 L 820 783 L 820 784 L 819 785 L 819 786 L 818 787 L 818 789 L 817 790 L 817 791 L 816 792 L 816 793 L 815 794 L 815 795 L 814 796 L 814 798 L 813 799 L 813 800 L 812 801 L 812 802 L 811 803 L 811 804 L 810 805 L 810 806 L 809 807 L 809 808 L 808 809 L 808 810 L 831 810 L 832 809 L 832 808 L 833 807 L 833 805 L 834 804 L 834 803 L 835 802 L 835 800 L 836 799 L 836 798 L 837 797 L 837 796 L 838 795 L 838 793 L 839 792 L 839 791 L 840 790 L 840 789 L 841 788 L 841 786 L 842 785 L 842 784 L 843 783 L 843 782 L 844 781 L 844 779 L 845 778 L 845 777 L 846 776 L 846 774 L 847 773 L 847 772 L 848 771 L 848 769 L 849 768 L 849 767 L 850 766 L 850 765 L 851 764 L 851 762 L 852 761 L 852 760 L 853 759 L 853 758 L 854 757 L 854 755 L 855 754 L 855 753 L 856 752 L 856 751 L 857 750 L 857 748 L 858 747 L 858 746 L 859 745 L 859 743 L 860 742 L 860 741 L 861 740 L 861 738 L 862 737 L 862 736 L 863 735 L 863 733 L 864 732 L 864 731 L 865 730 L 865 729 L 866 728 L 866 726 L 867 725 L 867 724 L 868 723 L 868 721 L 869 720 L 869 719 L 870 718 L 870 717 L 871 716 L 871 714 L 872 713 L 872 712 L 873 711 L 873 709 L 874 708 L 874 707 L 875 706 L 875 704 L 876 703 L 876 702 L 853 702 L 853 703 L 852 704 L 852 706 L 851 707 L 851 708 L 850 709 L 850 711 L 849 712 L 849 713 L 848 714 L 848 716 L 847 717 L 847 719 L 846 720 L 846 721 L 845 722 L 845 724 L 844 725 L 844 727 L 843 728 L 843 729 L 842 730 L 842 732 L 841 733 L 841 735 L 840 736 L 840 737 L 839 738 L 839 740 L 838 741 L 838 742 L 837 743 L 837 745 L 836 746 L 836 748 L 835 749 L 835 750 L 834 751 L 833 751 L 832 750 L 832 748 L 831 747 L 831 745 L 830 744 L 830 743 L 829 742 L 829 740 L 828 739 L 828 738 L 827 737 L 827 735 L 826 734 L 826 732 L 825 731 L 825 730 L 824 729 L 824 727 L 823 726 L 823 725 L 822 724 L 822 722 L 821 721 L 821 719 L 820 718 L 820 717 L 819 716 L 819 714 L 818 713 L 818 711 L 817 710 L 817 709 L 816 708 L 816 706 L 815 705 L 815 703 L 814 702 Z" fill="cyan" stroke="none"/><path d="M 745 701 L 744 702 L 739 702 L 738 703 L 736 703 L 735 704 L 734 704 L 733 705 L 732 705 L 731 706 L 730 706 L 724 712 L 724 713 L 723 714 L 723 715 L 722 716 L 722 718 L 721 719 L 721 730 L 722 731 L 722 733 L 723 734 L 723 735 L 730 742 L 731 742 L 732 743 L 733 743 L 734 744 L 735 744 L 736 745 L 737 745 L 738 746 L 740 746 L 741 747 L 744 747 L 745 748 L 748 748 L 749 749 L 752 749 L 753 750 L 755 750 L 756 751 L 757 751 L 758 752 L 759 752 L 760 753 L 761 753 L 762 754 L 762 755 L 763 756 L 763 759 L 762 760 L 762 761 L 760 763 L 759 763 L 758 764 L 756 764 L 755 765 L 746 765 L 745 764 L 743 764 L 742 763 L 740 763 L 738 761 L 737 761 L 731 755 L 731 756 L 730 757 L 729 757 L 728 758 L 727 758 L 725 760 L 724 760 L 722 762 L 721 762 L 720 763 L 719 763 L 718 764 L 718 765 L 720 767 L 720 768 L 725 773 L 726 773 L 728 775 L 729 775 L 731 777 L 732 777 L 733 778 L 735 778 L 736 779 L 738 779 L 739 780 L 743 780 L 744 781 L 760 781 L 761 780 L 764 780 L 765 779 L 767 779 L 768 778 L 769 778 L 771 776 L 772 776 L 774 774 L 775 774 L 779 770 L 779 769 L 780 768 L 780 767 L 781 766 L 781 765 L 782 764 L 782 761 L 783 760 L 783 752 L 782 751 L 782 749 L 781 748 L 781 746 L 780 745 L 780 744 L 773 737 L 772 737 L 771 736 L 770 736 L 769 735 L 767 735 L 766 734 L 764 734 L 763 733 L 760 733 L 759 732 L 756 732 L 755 731 L 752 731 L 751 730 L 748 730 L 747 729 L 745 729 L 744 728 L 743 728 L 742 727 L 741 727 L 740 726 L 740 725 L 739 724 L 739 722 L 743 718 L 745 718 L 746 717 L 753 717 L 754 718 L 757 718 L 758 719 L 759 719 L 760 720 L 761 720 L 762 721 L 763 721 L 766 724 L 766 725 L 767 726 L 769 726 L 771 724 L 772 724 L 773 723 L 774 723 L 775 722 L 776 722 L 778 720 L 779 720 L 781 718 L 781 716 L 778 713 L 778 712 L 774 708 L 773 708 L 771 706 L 770 706 L 769 705 L 768 705 L 767 704 L 765 704 L 764 703 L 762 703 L 761 702 L 757 702 L 756 701 Z" fill="cyan" stroke="none"/><path d="M 664 701 L 663 702 L 658 702 L 657 703 L 655 703 L 654 704 L 652 704 L 651 705 L 650 705 L 649 706 L 648 706 L 647 707 L 646 707 L 641 712 L 640 712 L 640 713 L 637 716 L 637 717 L 641 721 L 642 721 L 647 726 L 650 726 L 653 723 L 654 723 L 655 722 L 656 722 L 657 721 L 658 721 L 659 720 L 661 720 L 662 719 L 674 719 L 675 720 L 677 720 L 678 721 L 679 721 L 683 725 L 683 726 L 684 727 L 684 729 L 685 730 L 685 733 L 684 734 L 682 734 L 681 733 L 678 733 L 677 732 L 657 732 L 656 733 L 653 733 L 652 734 L 650 734 L 649 735 L 648 735 L 647 736 L 645 736 L 643 738 L 642 738 L 636 744 L 636 745 L 635 746 L 635 747 L 634 748 L 634 750 L 633 751 L 633 763 L 634 764 L 634 766 L 635 767 L 635 768 L 636 769 L 636 770 L 638 772 L 638 773 L 641 776 L 642 776 L 644 778 L 645 778 L 646 779 L 648 779 L 649 780 L 651 780 L 652 781 L 669 781 L 670 780 L 672 780 L 673 779 L 675 779 L 676 778 L 677 778 L 678 777 L 679 777 L 681 775 L 682 775 L 684 773 L 685 773 L 686 774 L 686 780 L 704 780 L 705 779 L 705 744 L 704 743 L 704 726 L 703 725 L 703 721 L 702 720 L 702 718 L 701 717 L 701 716 L 699 714 L 699 713 L 693 707 L 692 707 L 691 706 L 690 706 L 689 705 L 688 705 L 687 704 L 686 704 L 685 703 L 682 703 L 681 702 L 677 702 L 676 701 Z" fill="cyan" stroke="none"/><path d="M 487 701 L 486 702 L 481 702 L 480 703 L 479 703 L 478 704 L 476 704 L 474 706 L 473 706 L 470 709 L 469 709 L 468 710 L 467 709 L 467 702 L 454 702 L 454 780 L 466 780 L 467 779 L 467 731 L 468 730 L 468 727 L 469 726 L 469 725 L 470 724 L 470 723 L 471 722 L 471 721 L 474 718 L 475 718 L 477 716 L 478 716 L 479 715 L 480 715 L 481 714 L 485 714 L 486 713 L 487 713 L 488 714 L 495 714 L 496 715 L 498 715 L 500 717 L 501 717 L 503 719 L 503 720 L 505 722 L 505 723 L 506 724 L 506 725 L 507 726 L 507 730 L 508 731 L 508 780 L 520 780 L 521 779 L 521 726 L 520 725 L 520 721 L 519 720 L 519 719 L 518 718 L 518 716 L 517 715 L 517 714 L 515 712 L 515 711 L 510 706 L 509 706 L 508 705 L 507 705 L 506 704 L 505 704 L 504 703 L 502 703 L 501 702 L 497 702 L 496 701 Z" fill="cyan" stroke="none"/><path d="M 388 701 L 387 702 L 382 702 L 381 703 L 379 703 L 378 704 L 376 704 L 375 705 L 374 705 L 372 707 L 371 707 L 369 709 L 368 709 L 363 714 L 363 715 L 361 717 L 361 718 L 359 720 L 359 721 L 358 722 L 358 724 L 357 725 L 357 726 L 356 727 L 356 730 L 355 731 L 355 737 L 354 738 L 354 743 L 355 744 L 355 750 L 356 751 L 356 754 L 357 755 L 357 757 L 358 758 L 358 759 L 359 760 L 359 761 L 361 763 L 361 764 L 363 766 L 363 767 L 368 772 L 369 772 L 371 774 L 372 774 L 374 776 L 375 776 L 376 777 L 378 777 L 379 778 L 381 778 L 382 779 L 387 779 L 388 780 L 395 780 L 396 779 L 400 779 L 401 778 L 403 778 L 404 777 L 406 777 L 407 776 L 408 776 L 409 775 L 410 775 L 414 771 L 415 771 L 417 769 L 418 770 L 418 777 L 417 778 L 417 782 L 416 783 L 416 784 L 415 785 L 415 786 L 414 787 L 414 788 L 407 795 L 406 795 L 405 796 L 404 796 L 403 797 L 402 797 L 401 798 L 397 798 L 396 799 L 389 799 L 388 798 L 384 798 L 383 797 L 382 797 L 381 796 L 380 796 L 379 795 L 378 795 L 376 793 L 375 793 L 369 787 L 367 789 L 366 789 L 365 790 L 364 790 L 362 792 L 361 792 L 359 794 L 359 796 L 366 803 L 367 803 L 369 805 L 370 805 L 371 806 L 372 806 L 373 807 L 374 807 L 375 808 L 377 808 L 378 809 L 380 809 L 381 810 L 384 810 L 385 811 L 399 811 L 400 810 L 403 810 L 404 809 L 407 809 L 408 808 L 409 808 L 410 807 L 411 807 L 412 806 L 413 806 L 414 805 L 415 805 L 425 795 L 425 794 L 426 793 L 426 792 L 428 790 L 428 788 L 429 787 L 429 785 L 430 784 L 430 782 L 431 781 L 431 702 L 418 702 L 418 710 L 417 711 L 416 710 L 415 710 L 413 708 L 412 708 L 410 706 L 409 706 L 408 705 L 407 705 L 406 704 L 405 704 L 404 703 L 402 703 L 401 702 L 396 702 L 395 701 Z" fill="cyan" stroke="none"/><path d="M 296 701 L 295 702 L 291 702 L 290 703 L 288 703 L 287 704 L 285 704 L 284 705 L 283 705 L 281 707 L 280 707 L 278 709 L 277 709 L 269 717 L 269 718 L 267 720 L 267 721 L 266 722 L 266 724 L 265 725 L 265 726 L 264 727 L 264 729 L 263 730 L 263 733 L 262 734 L 262 749 L 263 750 L 263 754 L 264 755 L 264 756 L 265 757 L 265 759 L 266 760 L 266 761 L 267 762 L 267 763 L 270 766 L 270 767 L 275 772 L 276 772 L 279 775 L 280 775 L 281 776 L 282 776 L 283 777 L 284 777 L 285 778 L 286 778 L 287 779 L 289 779 L 290 780 L 293 780 L 294 781 L 309 781 L 310 780 L 313 780 L 314 779 L 316 779 L 317 778 L 318 778 L 319 777 L 320 777 L 321 776 L 322 776 L 324 774 L 325 774 L 329 770 L 330 770 L 331 769 L 331 768 L 335 764 L 335 763 L 336 762 L 336 761 L 337 760 L 337 759 L 338 758 L 338 757 L 339 756 L 339 754 L 340 753 L 340 749 L 341 748 L 341 733 L 340 732 L 340 729 L 339 728 L 339 726 L 338 725 L 338 724 L 337 723 L 337 722 L 336 721 L 336 720 L 335 719 L 335 718 L 331 714 L 331 713 L 330 713 L 325 708 L 324 708 L 322 706 L 321 706 L 320 705 L 319 705 L 318 704 L 316 704 L 315 703 L 313 703 L 312 702 L 307 702 L 306 701 Z" fill="cyan" stroke="none"/><path d="M 546 672 L 546 780 L 619 780 L 620 779 L 619 778 L 619 759 L 569 759 L 568 758 L 568 737 L 569 736 L 610 736 L 610 717 L 609 716 L 608 717 L 607 716 L 569 716 L 568 715 L 568 693 L 569 692 L 618 692 L 618 672 Z" fill="cyan" stroke="none"/><path d="M 197 670 L 196 671 L 192 671 L 191 672 L 189 672 L 188 673 L 186 673 L 185 674 L 183 674 L 182 675 L 181 675 L 180 676 L 179 676 L 177 678 L 176 678 L 174 680 L 173 680 L 171 682 L 170 682 L 163 689 L 163 690 L 160 693 L 160 694 L 159 695 L 159 696 L 157 698 L 157 699 L 156 700 L 156 701 L 155 702 L 155 704 L 154 705 L 154 707 L 153 708 L 153 710 L 152 711 L 152 715 L 151 716 L 151 737 L 152 738 L 152 742 L 153 743 L 153 745 L 154 746 L 154 748 L 155 749 L 155 750 L 156 751 L 156 752 L 157 753 L 157 754 L 158 755 L 158 756 L 160 758 L 160 759 L 162 761 L 162 762 L 169 769 L 170 769 L 174 773 L 175 773 L 176 774 L 177 774 L 178 775 L 179 775 L 180 776 L 181 776 L 182 777 L 183 777 L 184 778 L 185 778 L 186 779 L 189 779 L 190 780 L 193 780 L 194 781 L 201 781 L 202 782 L 209 782 L 210 781 L 216 781 L 217 780 L 220 780 L 221 779 L 223 779 L 224 778 L 226 778 L 227 777 L 228 777 L 229 776 L 230 776 L 231 775 L 232 775 L 233 774 L 234 774 L 236 772 L 237 772 L 240 769 L 241 769 L 246 764 L 246 763 L 249 760 L 249 759 L 251 757 L 251 756 L 250 756 L 249 755 L 248 755 L 246 753 L 245 753 L 244 752 L 242 752 L 241 751 L 239 751 L 238 752 L 238 753 L 229 762 L 228 762 L 226 764 L 225 764 L 224 765 L 223 765 L 222 766 L 221 766 L 220 767 L 217 767 L 216 768 L 213 768 L 212 769 L 198 769 L 197 768 L 193 768 L 192 767 L 190 767 L 189 766 L 188 766 L 187 765 L 186 765 L 185 764 L 184 764 L 182 762 L 181 762 L 171 752 L 171 751 L 170 750 L 170 749 L 169 748 L 169 747 L 168 746 L 168 745 L 167 744 L 167 743 L 166 742 L 166 739 L 165 738 L 165 735 L 164 734 L 164 719 L 165 718 L 165 714 L 166 713 L 166 711 L 167 710 L 167 708 L 168 707 L 168 706 L 169 705 L 169 704 L 171 702 L 171 701 L 173 699 L 173 698 L 180 691 L 181 691 L 183 689 L 184 689 L 186 687 L 187 687 L 188 686 L 190 686 L 191 685 L 193 685 L 194 684 L 197 684 L 198 683 L 211 683 L 212 684 L 216 684 L 217 685 L 219 685 L 220 686 L 222 686 L 223 687 L 224 687 L 226 689 L 227 689 L 229 691 L 230 691 L 237 698 L 237 699 L 238 700 L 240 700 L 241 699 L 243 699 L 244 698 L 245 698 L 246 697 L 247 697 L 248 696 L 249 696 L 250 695 L 249 694 L 249 693 L 248 692 L 248 691 L 245 688 L 245 687 L 240 682 L 239 682 L 236 679 L 235 679 L 234 678 L 233 678 L 231 676 L 230 676 L 229 675 L 228 675 L 227 674 L 225 674 L 224 673 L 223 673 L 222 672 L 219 672 L 218 671 L 214 671 L 213 670 Z" fill="cyan" stroke="none"/><path d="M 520 487 L 517 490 L 517 496 L 520 499 L 526 499 L 527 498 L 528 498 L 528 497 L 529 496 L 529 494 L 530 493 L 529 492 L 529 490 L 526 487 Z" fill="cyan" stroke="none"/><path d="M 491 457 L 489 459 L 488 459 L 488 460 L 487 461 L 487 462 L 486 463 L 486 468 L 487 469 L 487 470 L 490 473 L 492 473 L 493 474 L 497 474 L 498 473 L 499 473 L 502 470 L 502 469 L 503 468 L 503 463 L 502 462 L 502 461 L 498 457 Z" fill="cyan" stroke="none"/><path d="M 542 431 L 537 436 L 537 439 L 536 440 L 537 441 L 537 444 L 538 445 L 538 446 L 542 450 L 551 450 L 555 446 L 555 445 L 556 444 L 556 442 L 557 441 L 557 440 L 556 439 L 556 437 L 555 436 L 555 435 L 552 432 L 551 432 L 550 431 Z" fill="cyan" stroke="none"/><path d="M 593 416 L 592 417 L 591 417 L 591 418 L 590 419 L 590 420 L 589 421 L 589 423 L 590 424 L 590 426 L 591 427 L 592 427 L 593 428 L 599 428 L 602 425 L 602 419 L 599 416 Z" fill="cyan" stroke="none"/><path d="M 455 381 L 454 382 L 453 382 L 450 385 L 450 386 L 449 387 L 449 394 L 450 395 L 450 396 L 453 399 L 455 399 L 456 400 L 460 400 L 461 399 L 463 399 L 466 396 L 466 395 L 467 394 L 467 386 L 462 381 Z" fill="cyan" stroke="none"/><path d="M 572 374 L 571 375 L 570 375 L 567 378 L 567 379 L 566 380 L 566 381 L 565 382 L 565 388 L 566 389 L 566 391 L 570 395 L 571 395 L 572 396 L 575 396 L 576 397 L 578 397 L 579 396 L 581 396 L 582 395 L 583 395 L 586 392 L 586 391 L 587 390 L 587 388 L 588 387 L 588 383 L 587 382 L 587 380 L 586 379 L 586 378 L 584 376 L 583 376 L 582 375 L 581 375 L 580 374 Z" fill="cyan" stroke="none"/><path d="M 491 354 L 489 356 L 488 356 L 488 357 L 486 359 L 486 366 L 487 367 L 487 368 L 489 370 L 490 370 L 491 371 L 498 371 L 500 369 L 501 369 L 501 368 L 503 366 L 503 359 L 502 358 L 502 357 L 501 356 L 500 356 L 498 354 Z" fill="cyan" stroke="none"/><path d="M 564 272 L 561 275 L 561 276 L 560 277 L 560 279 L 561 280 L 561 281 L 564 284 L 566 284 L 567 285 L 568 285 L 569 284 L 571 284 L 573 282 L 573 281 L 574 280 L 574 276 L 573 275 L 573 274 L 572 273 L 571 273 L 570 272 Z" fill="cyan" stroke="none"/><path d="M 699 270 L 698 271 L 697 271 L 696 272 L 696 273 L 695 274 L 695 281 L 698 284 L 699 284 L 700 285 L 703 285 L 704 284 L 706 284 L 709 281 L 709 274 L 708 273 L 708 272 L 707 271 L 706 271 L 705 270 Z" fill="cyan" stroke="none"/><path d="M 614 259 L 613 260 L 612 260 L 612 261 L 611 262 L 611 263 L 610 264 L 610 299 L 609 300 L 574 300 L 573 301 L 572 301 L 570 303 L 570 304 L 569 305 L 569 342 L 573 346 L 609 346 L 610 347 L 610 382 L 611 383 L 611 384 L 614 387 L 651 387 L 652 386 L 653 386 L 656 383 L 656 347 L 657 346 L 692 346 L 693 345 L 694 345 L 696 343 L 696 342 L 697 341 L 697 305 L 694 302 L 694 301 L 693 301 L 692 300 L 657 300 L 656 299 L 656 264 L 655 263 L 655 262 L 652 259 Z" fill="cyan" stroke="none"/><path d="M 759 257 L 758 258 L 757 258 L 755 260 L 754 260 L 751 263 L 751 264 L 749 266 L 749 267 L 748 268 L 748 269 L 747 270 L 747 272 L 746 273 L 746 276 L 745 277 L 745 281 L 744 282 L 744 333 L 743 334 L 743 344 L 742 345 L 742 351 L 741 352 L 741 357 L 740 358 L 740 361 L 739 362 L 739 365 L 738 366 L 738 368 L 737 369 L 737 372 L 736 373 L 736 375 L 735 376 L 735 377 L 734 378 L 734 379 L 733 380 L 733 382 L 732 383 L 732 384 L 731 385 L 731 386 L 730 387 L 730 388 L 729 389 L 729 390 L 728 391 L 728 392 L 727 393 L 727 394 L 726 395 L 726 396 L 724 398 L 724 399 L 722 401 L 722 402 L 720 404 L 720 405 L 717 408 L 717 409 L 714 412 L 714 413 L 710 417 L 710 418 L 691 437 L 690 437 L 687 440 L 686 440 L 682 444 L 681 444 L 679 446 L 678 446 L 676 448 L 675 448 L 673 450 L 672 450 L 671 451 L 670 451 L 669 452 L 668 452 L 667 453 L 666 453 L 665 452 L 685 432 L 685 431 L 696 420 L 696 419 L 702 413 L 702 412 L 706 408 L 706 407 L 709 404 L 709 403 L 712 400 L 712 399 L 714 397 L 714 396 L 716 394 L 716 393 L 718 391 L 718 390 L 719 389 L 719 388 L 720 387 L 720 386 L 721 385 L 721 384 L 722 383 L 722 382 L 723 381 L 723 380 L 724 379 L 724 377 L 725 376 L 725 371 L 726 370 L 726 367 L 725 366 L 725 363 L 724 362 L 724 361 L 721 358 L 718 358 L 717 357 L 716 358 L 712 358 L 710 360 L 709 360 L 708 361 L 707 361 L 702 366 L 701 366 L 687 380 L 686 380 L 685 381 L 685 382 L 684 383 L 683 383 L 675 391 L 674 391 L 668 397 L 667 397 L 662 402 L 661 402 L 658 405 L 657 405 L 654 408 L 653 408 L 650 411 L 649 411 L 646 414 L 645 414 L 642 417 L 641 417 L 638 420 L 637 420 L 635 422 L 634 422 L 632 424 L 631 424 L 628 427 L 627 427 L 625 429 L 624 429 L 622 431 L 621 431 L 619 433 L 618 433 L 616 435 L 615 435 L 613 437 L 612 437 L 610 439 L 609 439 L 607 441 L 606 441 L 603 444 L 602 444 L 600 446 L 599 446 L 597 448 L 596 448 L 594 450 L 593 450 L 590 453 L 589 453 L 587 455 L 586 455 L 581 460 L 580 460 L 575 465 L 574 465 L 567 472 L 566 472 L 553 485 L 553 486 L 548 491 L 548 492 L 545 495 L 545 496 L 542 499 L 542 500 L 540 502 L 540 503 L 538 505 L 538 506 L 537 507 L 537 508 L 535 510 L 535 511 L 534 512 L 534 513 L 533 514 L 533 515 L 532 516 L 532 517 L 531 518 L 531 519 L 530 520 L 530 522 L 529 523 L 529 524 L 528 525 L 528 527 L 527 528 L 527 530 L 526 531 L 526 533 L 525 534 L 525 536 L 524 537 L 524 540 L 523 541 L 523 544 L 522 545 L 522 550 L 521 551 L 521 554 L 520 555 L 520 562 L 519 563 L 519 573 L 518 574 L 518 618 L 519 619 L 519 629 L 520 629 L 525 624 L 526 624 L 536 614 L 537 614 L 544 607 L 545 607 L 549 603 L 550 603 L 554 599 L 555 599 L 558 596 L 559 596 L 562 593 L 563 593 L 565 591 L 566 591 L 569 588 L 570 588 L 572 586 L 573 586 L 576 583 L 577 583 L 579 581 L 580 581 L 582 579 L 583 579 L 584 578 L 585 578 L 587 576 L 588 576 L 590 574 L 591 574 L 592 573 L 593 573 L 595 571 L 596 571 L 598 569 L 599 569 L 600 568 L 601 568 L 603 566 L 604 566 L 605 565 L 606 565 L 608 563 L 609 563 L 610 562 L 611 562 L 612 561 L 613 561 L 615 559 L 616 559 L 617 558 L 618 558 L 619 557 L 620 557 L 622 555 L 623 555 L 624 554 L 625 554 L 627 552 L 628 552 L 629 551 L 630 551 L 631 550 L 632 550 L 634 548 L 635 548 L 636 547 L 637 547 L 639 545 L 640 545 L 641 544 L 642 544 L 643 543 L 644 543 L 646 541 L 647 541 L 649 539 L 650 539 L 651 538 L 652 538 L 654 536 L 655 536 L 656 535 L 657 535 L 659 533 L 660 533 L 661 532 L 662 532 L 664 530 L 665 530 L 667 528 L 668 528 L 669 527 L 670 527 L 672 525 L 673 525 L 675 523 L 676 523 L 679 520 L 680 520 L 682 518 L 683 518 L 685 516 L 686 516 L 689 513 L 690 513 L 692 511 L 693 511 L 697 507 L 698 507 L 702 503 L 703 503 L 708 498 L 709 498 L 717 490 L 718 490 L 731 477 L 731 476 L 740 467 L 740 466 L 744 462 L 744 461 L 747 458 L 747 457 L 749 455 L 749 454 L 751 452 L 751 451 L 753 449 L 753 448 L 754 447 L 754 446 L 756 444 L 756 443 L 757 442 L 757 441 L 759 439 L 759 437 L 760 436 L 760 435 L 762 433 L 762 432 L 763 431 L 763 429 L 764 428 L 764 427 L 765 426 L 765 425 L 766 424 L 766 422 L 767 421 L 767 419 L 768 418 L 768 417 L 769 416 L 769 414 L 770 413 L 770 411 L 771 410 L 771 407 L 772 406 L 772 403 L 773 402 L 773 400 L 774 399 L 774 396 L 775 395 L 775 390 L 776 389 L 776 385 L 777 384 L 777 377 L 778 376 L 778 366 L 779 365 L 779 332 L 778 331 L 778 318 L 777 317 L 777 309 L 776 308 L 776 302 L 775 301 L 775 293 L 774 292 L 774 285 L 773 284 L 773 278 L 772 277 L 772 272 L 771 271 L 771 266 L 770 265 L 770 262 L 769 261 L 769 260 L 767 258 L 766 258 L 765 257 Z" fill="cyan" stroke="none"/><path d="M 259 257 L 258 258 L 257 258 L 254 261 L 254 262 L 253 263 L 253 266 L 252 267 L 252 272 L 251 273 L 251 280 L 250 281 L 250 288 L 249 289 L 249 295 L 248 296 L 248 303 L 247 304 L 247 311 L 246 312 L 246 323 L 245 324 L 245 371 L 246 372 L 246 380 L 247 381 L 247 386 L 248 387 L 248 391 L 249 392 L 249 396 L 250 397 L 250 400 L 251 401 L 251 404 L 252 405 L 252 408 L 253 409 L 253 411 L 254 412 L 254 415 L 255 416 L 255 418 L 256 419 L 256 420 L 257 421 L 257 423 L 258 424 L 258 425 L 259 426 L 259 427 L 260 428 L 260 430 L 261 431 L 261 432 L 262 433 L 262 434 L 263 435 L 263 436 L 264 437 L 264 438 L 265 439 L 265 440 L 266 441 L 266 442 L 268 444 L 268 445 L 269 446 L 269 447 L 270 448 L 270 449 L 272 451 L 272 452 L 274 454 L 274 455 L 277 458 L 277 459 L 280 462 L 280 463 L 283 466 L 283 467 L 291 475 L 291 476 L 305 490 L 306 490 L 314 498 L 315 498 L 320 503 L 321 503 L 325 507 L 326 507 L 330 511 L 331 511 L 334 514 L 335 514 L 338 517 L 339 517 L 341 519 L 342 519 L 344 521 L 345 521 L 347 523 L 348 523 L 350 525 L 351 525 L 353 527 L 354 527 L 356 529 L 357 529 L 359 531 L 360 531 L 362 533 L 363 533 L 365 535 L 366 535 L 367 536 L 368 536 L 370 538 L 371 538 L 372 539 L 373 539 L 375 541 L 376 541 L 377 542 L 378 542 L 379 543 L 380 543 L 382 545 L 383 545 L 384 546 L 385 546 L 386 547 L 387 547 L 389 549 L 390 549 L 391 550 L 392 550 L 393 551 L 394 551 L 396 553 L 397 553 L 398 554 L 399 554 L 401 556 L 402 556 L 403 557 L 404 557 L 405 558 L 406 558 L 408 560 L 409 560 L 410 561 L 411 561 L 413 563 L 414 563 L 415 564 L 416 564 L 418 566 L 419 566 L 420 567 L 421 567 L 423 569 L 424 569 L 425 570 L 426 570 L 428 572 L 429 572 L 431 574 L 432 574 L 433 575 L 434 575 L 436 577 L 437 577 L 439 579 L 440 579 L 442 581 L 443 581 L 445 583 L 446 583 L 448 585 L 449 585 L 451 587 L 452 587 L 454 589 L 455 589 L 457 591 L 458 591 L 461 594 L 462 594 L 464 596 L 465 596 L 467 598 L 468 598 L 472 602 L 473 602 L 477 606 L 478 606 L 483 611 L 484 611 L 492 619 L 493 619 L 502 628 L 502 629 L 503 629 L 503 626 L 504 625 L 504 608 L 505 607 L 505 587 L 504 586 L 504 571 L 503 570 L 503 561 L 502 560 L 502 554 L 501 553 L 501 548 L 500 547 L 500 543 L 499 542 L 499 539 L 498 538 L 498 536 L 497 535 L 497 532 L 496 531 L 496 529 L 495 528 L 495 526 L 494 525 L 494 524 L 493 523 L 493 521 L 492 520 L 492 519 L 491 518 L 491 517 L 490 516 L 490 515 L 489 514 L 489 513 L 488 512 L 488 511 L 487 510 L 487 509 L 486 508 L 486 507 L 485 506 L 485 505 L 483 503 L 483 502 L 481 500 L 481 499 L 479 497 L 479 496 L 475 492 L 475 491 L 470 486 L 470 485 L 453 468 L 452 468 L 446 462 L 445 462 L 441 458 L 440 458 L 436 454 L 435 454 L 432 451 L 431 451 L 428 448 L 427 448 L 425 446 L 424 446 L 421 443 L 420 443 L 418 441 L 417 441 L 415 439 L 414 439 L 412 437 L 411 437 L 409 435 L 408 435 L 406 433 L 405 433 L 403 431 L 402 431 L 400 429 L 399 429 L 396 426 L 395 426 L 393 424 L 392 424 L 390 422 L 389 422 L 387 420 L 386 420 L 384 418 L 383 418 L 381 416 L 380 416 L 377 413 L 376 413 L 373 410 L 372 410 L 369 407 L 368 407 L 365 404 L 364 404 L 360 400 L 359 400 L 355 396 L 354 396 L 348 390 L 347 390 L 332 375 L 331 375 L 330 374 L 330 373 L 329 372 L 328 372 L 320 364 L 319 364 L 316 361 L 315 361 L 314 360 L 313 360 L 312 359 L 311 359 L 310 358 L 302 358 L 299 361 L 299 362 L 298 363 L 298 372 L 299 373 L 299 376 L 300 377 L 300 379 L 301 380 L 301 381 L 302 382 L 302 383 L 303 384 L 303 386 L 304 387 L 304 388 L 306 390 L 306 391 L 307 392 L 307 393 L 309 395 L 309 396 L 311 398 L 311 399 L 313 401 L 313 402 L 316 405 L 316 406 L 320 410 L 320 411 L 325 416 L 325 417 L 330 422 L 330 423 L 347 440 L 347 441 L 354 448 L 355 448 L 360 453 L 359 454 L 358 454 L 356 452 L 355 452 L 354 451 L 353 451 L 352 450 L 351 450 L 349 448 L 348 448 L 346 446 L 345 446 L 343 444 L 342 444 L 339 441 L 338 441 L 334 437 L 333 437 L 323 427 L 322 427 L 320 425 L 320 424 L 312 416 L 312 415 L 308 411 L 308 410 L 305 407 L 305 406 L 303 404 L 303 403 L 300 400 L 300 399 L 299 398 L 299 397 L 297 395 L 297 394 L 296 393 L 296 392 L 295 391 L 295 390 L 294 389 L 294 388 L 293 387 L 293 386 L 292 385 L 292 384 L 291 383 L 291 382 L 290 381 L 290 380 L 289 379 L 289 377 L 288 376 L 288 375 L 287 374 L 287 372 L 286 371 L 286 369 L 285 368 L 285 365 L 284 364 L 284 361 L 283 360 L 283 357 L 282 356 L 282 351 L 281 350 L 281 344 L 280 343 L 280 333 L 279 332 L 279 284 L 278 283 L 278 276 L 277 275 L 277 272 L 276 271 L 276 270 L 275 269 L 275 267 L 273 265 L 273 264 L 268 259 L 267 259 L 266 258 L 265 258 L 264 257 Z" fill="cyan" stroke="none"/><path d="M 719 227 L 718 228 L 717 228 L 712 233 L 712 235 L 711 236 L 711 243 L 712 244 L 712 245 L 717 250 L 718 250 L 719 251 L 727 251 L 728 250 L 729 250 L 734 245 L 734 243 L 735 242 L 735 235 L 734 234 L 734 233 L 729 228 L 728 228 L 727 227 Z" fill="cyan" stroke="none"/><path d="M 659 223 L 658 224 L 657 224 L 655 226 L 655 227 L 654 228 L 654 233 L 655 234 L 655 235 L 656 236 L 657 236 L 658 237 L 659 237 L 660 238 L 662 238 L 663 237 L 665 237 L 668 234 L 668 227 L 667 226 L 667 225 L 666 225 L 664 223 Z" fill="cyan" stroke="none"/><path d="M 274 221 L 270 225 L 270 230 L 271 231 L 271 232 L 272 233 L 273 233 L 274 234 L 280 234 L 283 231 L 283 230 L 284 229 L 284 226 L 283 225 L 283 224 L 280 221 Z" fill="cyan" stroke="none"/><path d="M 366 204 L 365 205 L 363 205 L 362 206 L 360 206 L 359 207 L 358 207 L 357 208 L 356 208 L 355 209 L 354 209 L 351 212 L 350 212 L 345 217 L 345 218 L 343 220 L 343 221 L 342 222 L 342 223 L 341 224 L 341 225 L 340 226 L 340 228 L 339 229 L 339 232 L 338 233 L 338 244 L 339 245 L 339 249 L 340 250 L 340 252 L 341 253 L 341 254 L 342 255 L 342 256 L 343 257 L 343 258 L 345 260 L 345 261 L 350 266 L 350 267 L 394 311 L 395 311 L 400 316 L 408 316 L 410 314 L 411 314 L 411 313 L 415 309 L 416 309 L 461 264 L 461 263 L 464 260 L 464 259 L 465 258 L 465 257 L 466 256 L 466 255 L 467 254 L 467 253 L 468 252 L 468 250 L 469 249 L 469 246 L 470 245 L 470 232 L 469 231 L 469 228 L 468 227 L 468 226 L 467 225 L 467 224 L 466 223 L 466 222 L 465 221 L 465 220 L 464 219 L 464 218 L 457 211 L 456 211 L 454 209 L 453 209 L 452 208 L 451 208 L 450 207 L 449 207 L 448 206 L 447 206 L 446 205 L 443 205 L 442 204 L 428 204 L 427 205 L 425 205 L 424 206 L 422 206 L 421 207 L 420 207 L 419 208 L 417 208 L 414 211 L 413 211 L 404 220 L 395 211 L 394 211 L 392 209 L 391 209 L 390 208 L 389 208 L 388 207 L 387 207 L 386 206 L 385 206 L 384 205 L 381 205 L 380 204 Z" fill="cyan" stroke="none"/><path d="M 705 193 L 703 195 L 703 196 L 702 197 L 702 202 L 703 203 L 703 204 L 704 204 L 705 205 L 706 205 L 707 206 L 710 206 L 711 205 L 712 205 L 714 203 L 714 202 L 715 201 L 715 197 L 714 196 L 714 195 L 712 193 Z" fill="cyan" stroke="none"/><path d="M 534 168 L 532 170 L 532 171 L 531 172 L 531 174 L 530 175 L 531 176 L 531 178 L 532 179 L 532 180 L 533 180 L 534 181 L 535 181 L 536 182 L 541 182 L 544 179 L 544 178 L 545 177 L 545 173 L 544 172 L 544 171 L 543 170 L 543 169 L 542 169 L 541 168 Z" fill="cyan" stroke="none"/><path d="M 665 166 L 664 167 L 663 167 L 661 169 L 661 170 L 659 172 L 659 180 L 660 181 L 660 182 L 663 185 L 664 185 L 665 186 L 666 186 L 667 187 L 671 187 L 672 186 L 674 186 L 675 185 L 676 185 L 678 183 L 678 182 L 679 181 L 679 180 L 680 179 L 680 173 L 679 172 L 679 171 L 678 170 L 678 169 L 677 168 L 676 168 L 674 166 Z" fill="cyan" stroke="none"/><path d="M 626 149 L 623 152 L 623 153 L 622 154 L 622 157 L 623 158 L 623 159 L 626 162 L 632 162 L 636 158 L 636 153 L 635 152 L 635 151 L 634 150 L 633 150 L 632 149 Z" fill="cyan" stroke="none"/><path d="M 399 148 L 396 151 L 396 152 L 395 153 L 395 156 L 396 157 L 396 158 L 399 161 L 406 161 L 408 159 L 408 158 L 409 157 L 409 152 L 407 150 L 407 149 L 406 149 L 405 148 Z" fill="cyan" stroke="none"/><path d="M 432 147 L 431 148 L 428 148 L 427 149 L 426 149 L 421 154 L 421 155 L 420 156 L 420 159 L 419 160 L 419 162 L 420 163 L 420 165 L 421 166 L 421 167 L 426 172 L 427 172 L 428 173 L 438 173 L 439 172 L 440 172 L 441 171 L 442 171 L 443 170 L 444 170 L 445 169 L 446 169 L 447 170 L 452 170 L 453 171 L 456 171 L 457 172 L 460 172 L 461 173 L 463 173 L 464 174 L 465 174 L 466 175 L 467 175 L 468 176 L 469 176 L 471 178 L 472 178 L 474 180 L 475 180 L 485 190 L 485 191 L 488 194 L 488 195 L 489 196 L 489 197 L 491 199 L 491 200 L 492 201 L 492 203 L 493 204 L 493 205 L 494 206 L 494 208 L 495 209 L 495 212 L 496 213 L 496 216 L 497 217 L 497 223 L 498 224 L 498 237 L 497 238 L 497 246 L 496 247 L 496 251 L 495 252 L 495 256 L 494 257 L 494 260 L 493 261 L 493 264 L 492 265 L 492 267 L 491 268 L 491 270 L 490 271 L 490 273 L 489 274 L 489 275 L 488 276 L 488 278 L 487 279 L 487 280 L 486 281 L 486 283 L 485 284 L 485 285 L 484 286 L 484 287 L 483 288 L 483 289 L 482 290 L 482 291 L 481 292 L 481 293 L 479 295 L 479 296 L 478 297 L 478 298 L 476 300 L 476 301 L 473 304 L 473 305 L 470 308 L 470 309 L 465 314 L 465 315 L 446 334 L 445 334 L 443 336 L 442 336 L 440 338 L 439 338 L 437 340 L 436 340 L 435 341 L 434 341 L 433 342 L 432 342 L 431 343 L 430 343 L 429 344 L 428 344 L 427 345 L 425 345 L 424 346 L 422 346 L 421 347 L 418 347 L 417 348 L 410 348 L 409 349 L 406 349 L 405 348 L 396 348 L 395 347 L 392 347 L 391 346 L 388 346 L 387 345 L 385 345 L 384 344 L 382 344 L 381 343 L 380 343 L 379 342 L 378 342 L 377 341 L 376 341 L 375 340 L 374 340 L 373 339 L 372 339 L 370 337 L 369 337 L 367 335 L 366 335 L 364 333 L 363 333 L 359 329 L 358 329 L 342 313 L 342 312 L 337 307 L 337 306 L 333 302 L 333 301 L 330 298 L 330 297 L 328 295 L 328 294 L 327 293 L 327 292 L 326 291 L 326 290 L 325 289 L 325 288 L 324 287 L 324 286 L 323 285 L 323 284 L 322 283 L 322 282 L 321 281 L 321 280 L 320 279 L 320 277 L 319 276 L 319 275 L 318 274 L 318 272 L 317 271 L 317 269 L 316 268 L 316 266 L 315 265 L 315 263 L 314 262 L 314 259 L 313 258 L 313 255 L 312 254 L 312 251 L 311 250 L 311 244 L 310 243 L 310 230 L 309 229 L 310 228 L 309 227 L 310 226 L 310 217 L 311 216 L 311 212 L 312 211 L 312 208 L 313 207 L 313 205 L 314 204 L 314 203 L 315 202 L 315 200 L 317 198 L 317 197 L 318 196 L 318 195 L 319 194 L 319 193 L 324 188 L 324 187 L 329 182 L 330 182 L 333 179 L 334 179 L 336 177 L 337 177 L 338 176 L 339 176 L 340 175 L 341 175 L 342 174 L 344 174 L 345 173 L 346 173 L 347 172 L 350 172 L 351 171 L 354 171 L 355 170 L 365 170 L 367 172 L 368 172 L 369 173 L 379 173 L 380 172 L 381 172 L 383 170 L 384 170 L 384 169 L 386 167 L 386 166 L 387 165 L 387 156 L 386 155 L 386 154 L 381 149 L 380 149 L 379 148 L 370 148 L 369 149 L 368 149 L 366 151 L 365 151 L 364 152 L 364 153 L 361 156 L 357 156 L 356 157 L 351 157 L 350 158 L 347 158 L 346 159 L 343 159 L 342 160 L 340 160 L 339 161 L 338 161 L 337 162 L 336 162 L 335 163 L 334 163 L 333 164 L 332 164 L 331 165 L 330 165 L 329 166 L 328 166 L 326 168 L 325 168 L 323 170 L 322 170 L 310 182 L 310 183 L 308 185 L 308 186 L 306 188 L 306 189 L 305 190 L 305 191 L 304 192 L 304 193 L 303 194 L 303 195 L 302 196 L 302 197 L 301 198 L 301 200 L 300 201 L 300 203 L 299 204 L 299 206 L 298 207 L 298 211 L 297 212 L 297 217 L 296 218 L 296 241 L 297 242 L 297 248 L 298 249 L 298 254 L 299 255 L 299 259 L 300 260 L 300 262 L 301 263 L 301 266 L 302 267 L 302 270 L 303 271 L 303 272 L 304 273 L 304 275 L 305 276 L 305 278 L 306 279 L 306 281 L 307 282 L 307 283 L 308 284 L 308 286 L 309 287 L 309 288 L 310 289 L 310 290 L 311 291 L 311 292 L 312 293 L 312 295 L 313 296 L 313 297 L 315 299 L 315 300 L 316 301 L 316 302 L 317 303 L 317 304 L 318 305 L 318 306 L 320 308 L 320 310 L 321 311 L 321 312 L 322 313 L 322 315 L 324 317 L 324 318 L 325 319 L 325 320 L 327 322 L 327 323 L 329 325 L 329 326 L 332 329 L 332 330 L 337 335 L 337 336 L 343 342 L 344 342 L 349 347 L 350 347 L 354 351 L 355 351 L 356 352 L 357 352 L 359 354 L 360 354 L 362 356 L 363 356 L 364 357 L 365 357 L 366 358 L 367 358 L 368 359 L 369 359 L 370 360 L 371 360 L 372 361 L 373 361 L 374 362 L 376 362 L 377 363 L 380 363 L 381 364 L 383 364 L 384 365 L 387 365 L 388 366 L 392 366 L 393 367 L 399 367 L 401 369 L 401 377 L 402 378 L 402 382 L 403 383 L 403 386 L 404 387 L 404 389 L 405 390 L 405 391 L 406 392 L 406 394 L 407 395 L 407 396 L 408 397 L 408 398 L 409 399 L 409 400 L 411 402 L 411 403 L 414 406 L 414 407 L 417 410 L 417 411 L 424 418 L 425 418 L 429 422 L 430 422 L 433 425 L 434 425 L 435 426 L 436 426 L 437 427 L 438 427 L 439 428 L 440 428 L 441 429 L 442 429 L 443 430 L 445 430 L 446 431 L 447 431 L 448 432 L 450 432 L 451 433 L 455 433 L 456 434 L 461 434 L 462 435 L 478 435 L 479 434 L 484 434 L 485 433 L 488 433 L 489 432 L 491 432 L 492 431 L 494 431 L 495 430 L 496 430 L 497 429 L 498 429 L 499 428 L 500 428 L 501 427 L 502 427 L 503 426 L 504 426 L 505 425 L 506 425 L 508 423 L 509 423 L 512 420 L 513 420 L 525 408 L 525 407 L 528 404 L 528 403 L 530 401 L 530 400 L 531 399 L 531 398 L 532 397 L 532 396 L 533 395 L 533 394 L 534 393 L 534 392 L 535 391 L 535 389 L 536 388 L 536 386 L 537 385 L 537 383 L 538 382 L 538 379 L 539 378 L 539 371 L 540 370 L 540 265 L 541 264 L 541 259 L 542 258 L 542 255 L 543 254 L 543 252 L 544 251 L 544 250 L 545 249 L 545 248 L 546 247 L 546 246 L 547 245 L 547 244 L 550 241 L 550 240 L 555 235 L 556 235 L 558 233 L 559 233 L 561 231 L 562 231 L 563 230 L 564 230 L 566 228 L 568 228 L 569 227 L 571 227 L 572 226 L 573 226 L 575 228 L 575 229 L 581 235 L 582 235 L 584 237 L 585 237 L 586 238 L 587 238 L 588 239 L 590 239 L 591 240 L 594 240 L 595 241 L 605 241 L 606 240 L 610 240 L 611 239 L 613 239 L 614 238 L 615 238 L 616 237 L 617 237 L 619 235 L 620 235 L 628 227 L 628 226 L 629 225 L 629 224 L 630 223 L 630 222 L 631 221 L 631 218 L 632 217 L 632 204 L 631 203 L 631 200 L 630 199 L 630 198 L 629 197 L 629 195 L 627 193 L 627 192 L 625 190 L 625 189 L 623 187 L 622 187 L 619 184 L 618 184 L 616 182 L 615 182 L 614 181 L 612 181 L 611 180 L 608 180 L 607 179 L 596 179 L 595 180 L 592 180 L 591 181 L 589 181 L 588 182 L 587 182 L 586 183 L 585 183 L 583 185 L 582 185 L 575 192 L 575 193 L 574 194 L 574 195 L 573 196 L 573 197 L 572 198 L 572 199 L 571 200 L 571 203 L 570 204 L 570 213 L 568 215 L 567 214 L 566 215 L 564 215 L 563 216 L 561 216 L 559 218 L 558 218 L 557 219 L 556 219 L 555 220 L 554 220 L 553 221 L 552 221 L 549 224 L 548 224 L 538 234 L 538 235 L 535 238 L 535 239 L 534 240 L 534 241 L 533 242 L 533 243 L 532 244 L 532 245 L 531 246 L 531 247 L 530 248 L 530 251 L 529 252 L 529 254 L 528 255 L 528 260 L 527 261 L 527 271 L 526 272 L 526 319 L 527 320 L 527 371 L 526 372 L 526 376 L 525 377 L 525 380 L 524 381 L 524 383 L 523 384 L 523 385 L 522 386 L 522 388 L 520 390 L 520 391 L 519 392 L 519 393 L 518 394 L 518 395 L 515 398 L 515 399 L 503 411 L 502 411 L 500 413 L 499 413 L 497 415 L 496 415 L 495 416 L 494 416 L 493 417 L 491 417 L 490 418 L 489 418 L 488 419 L 486 419 L 485 420 L 481 420 L 480 421 L 475 421 L 474 422 L 467 422 L 466 421 L 459 421 L 458 420 L 455 420 L 454 419 L 452 419 L 451 418 L 449 418 L 448 417 L 447 417 L 446 416 L 445 416 L 444 415 L 443 415 L 442 414 L 441 414 L 439 412 L 438 412 L 435 409 L 434 409 L 425 400 L 425 399 L 422 396 L 422 395 L 421 394 L 421 393 L 420 392 L 420 391 L 419 390 L 419 389 L 418 388 L 418 387 L 417 386 L 417 385 L 416 384 L 416 382 L 415 381 L 415 377 L 414 376 L 414 372 L 413 371 L 413 368 L 414 367 L 416 367 L 417 366 L 422 366 L 423 365 L 426 365 L 427 364 L 429 364 L 430 363 L 432 363 L 433 362 L 435 362 L 436 361 L 437 361 L 438 360 L 440 360 L 441 359 L 442 359 L 443 358 L 444 358 L 446 356 L 447 356 L 448 355 L 449 355 L 451 353 L 452 353 L 454 351 L 455 351 L 458 348 L 459 348 L 463 344 L 464 344 L 471 337 L 471 336 L 476 331 L 476 330 L 479 327 L 479 326 L 481 324 L 481 323 L 483 321 L 483 320 L 485 318 L 485 316 L 486 315 L 486 314 L 487 313 L 487 311 L 488 310 L 488 309 L 489 308 L 489 307 L 490 306 L 490 305 L 492 303 L 492 302 L 493 301 L 493 300 L 494 299 L 494 298 L 495 297 L 495 295 L 496 294 L 496 293 L 497 292 L 497 291 L 498 290 L 498 289 L 499 288 L 499 286 L 500 285 L 500 283 L 501 282 L 501 281 L 502 280 L 502 278 L 503 277 L 503 275 L 504 274 L 504 272 L 505 271 L 505 269 L 506 268 L 506 265 L 507 264 L 507 262 L 508 261 L 508 257 L 509 256 L 509 251 L 510 250 L 510 243 L 511 242 L 511 221 L 510 220 L 510 214 L 509 213 L 509 209 L 508 208 L 508 205 L 507 204 L 507 202 L 506 201 L 506 200 L 505 199 L 505 197 L 504 196 L 504 195 L 503 194 L 503 193 L 502 192 L 502 191 L 501 190 L 501 189 L 499 187 L 499 186 L 497 184 L 497 183 L 494 180 L 494 179 L 487 172 L 486 172 L 483 169 L 482 169 L 480 167 L 479 167 L 477 165 L 476 165 L 475 164 L 474 164 L 473 163 L 472 163 L 471 162 L 470 162 L 469 161 L 467 161 L 466 160 L 465 160 L 464 159 L 461 159 L 460 158 L 457 158 L 456 157 L 452 157 L 451 156 L 446 156 L 444 154 L 444 153 L 441 150 L 440 150 L 438 148 L 435 148 L 434 147 L 433 148 Z" fill="cyan" stroke="none"/><path d="M 577 139 L 576 140 L 574 140 L 571 143 L 571 144 L 570 145 L 570 146 L 569 147 L 569 154 L 570 155 L 570 156 L 574 160 L 575 160 L 576 161 L 578 161 L 579 162 L 582 162 L 583 161 L 585 161 L 587 159 L 588 159 L 589 158 L 589 157 L 590 156 L 590 155 L 591 154 L 591 146 L 590 145 L 590 144 L 586 140 L 585 140 L 584 139 Z" fill="cyan" stroke="none"/></svg>