<svg width="32" height="32" viewBox="0 0 32 32" fill="none" xmlns="http://www.w3.org/2000/svg">
  <!-- Background circle -->
  <circle cx="16" cy="16" r="16" fill="#4A90E2"/>
  
  <!-- Heart + Brain icon -->
  <path d="M8 16 c0-3 2-5 4-5 c1.5 0 3 1 3.5 2 c0.5-1 2-2 3.5-2 c2 0 4 2 4 5 c0 5-7 9-7.5 9.5 c-0.5-0.5-7.5-4.5-7.5-9.5" fill="white"/>
  <path d="M16 16 l0-3 l2 0 c0-1 1-2 2-2 s2 1 2 2 l2 0 l0 3 c-1 0-2 1-2 2 s1 2 2 2 l0 3 l-2 0 c0 1-1 2-2 2 s-2-1-2-2 l-2 0 l0-3 c1 0 2-1 2-2 s-1-2-2-2" fill="#50C878"/>
</svg>