<svg width="1200" height="630" viewBox="0 0 1200 630" fill="none" xmlns="http://www.w3.org/2000/svg">
  <!-- Background gradient -->
  <rect width="1200" height="630" fill="url(#gradient)"/>
  
  <!-- Logo mark -->
  <g transform="translate(515 200) scale(2)">
    <circle cx="20" cy="20" r="18" fill="white" opacity="0.1"/>
    <path d="M15 20 c0-3 2-5 4-5 c1.5 0 3 1 3.5 2 c0.5-1 2-2 3.5-2 c2 0 4 2 4 5 c0 5-7 9-8 10 c-1-1-8-5-8-10" fill="white"/>
    <path d="M22 20 l0-4 l3 0 c0-1.5 1.5-3 3-3 s3 1.5 3 3 l3 0 l0 4 c-1.5 0-3 1.5-3 3 s1.5 3 3 3 l0 4 l-3 0 c0 1.5-1.5 3-3 3 s-3-1.5-3-3 l-3 0 l0-4 c1.5 0 3-1.5 3-3 s-1.5-3-3-3" fill="white"/>
  </g>
  
  <!-- Title -->
  <text x="600" y="330" font-family="Arial" font-size="64" font-weight="bold" fill="white" text-anchor="middle">CognEasy</text>
  
  <!-- Subtitle -->
  <text x="600" y="390" font-family="Arial" font-size="28" fill="white" text-anchor="middle">Seu Assistente de Tratamento Inteligente</text>
  
  <!-- Decorative elements -->
  <g opacity="0.2">
    <!-- Left side -->
    <path d="M100 100 h40 v-40 h20 v40 h40 v20 h-40 v40 h-20 v-40 h-40 v-20" fill="white"/>
    <rect x="80" y="250" width="60" height="20" rx="10" fill="white" transform="rotate(45 110 260)"/>
    <path d="M100 400 c0-30 20-50 40-50 c15 0 30 10 35 20 c5-10 20-20 35-20 c20 0 40 20 40 50 c0 50-70 90-75 95 c-5-5-75-45-75-95" fill="white"/>
    
    <!-- Right side -->
    <path d="M1000 100 h40 v-40 h20 v40 h40 v20 h-40 v40 h-20 v-40 h-40 v-20" fill="white"/>
    <rect x="1020" y="250" width="60" height="20" rx="10" fill="white" transform="rotate(-45 1050 260)"/>
    <path d="M950 400 c0-30 20-50 40-50 c15 0 30 10 35 20 c5-10 20-20 35-20 c20 0 40 20 40 50 c0 50-70 90-75 95 c-5-5-75-45-75-95" fill="white"/>
    
    <!-- Bottom -->
    <rect x="400" y="500" width="100" height="100" rx="10" fill="white"/>
    <rect x="410" y="510" width="80" height="20" fill="#4A90E2"/>
    <rect x="410" y="540" width="20" height="20" fill="#50C878"/>
    <rect x="440" y="540" width="20" height="20" fill="#50C878"/>
    <rect x="470" y="540" width="20" height="20" fill="#50C878"/>
    
    <circle cx="600" cy="550" r="10" fill="white"/>
    <circle cx="650" cy="520" r="10" fill="white"/>
    <circle cx="700" cy="550" r="10" fill="white"/>
    <line x1="610" y1="550" x2="640" y2="520" stroke="white" stroke-width="4"/>
    <line x1="660" y1="520" x2="690" y2="550" stroke="white" stroke-width="4"/>
    
    <rect x="800" y="500" width="60" height="20" rx="10" fill="white" transform="rotate(15 830 510)"/>
  </g>
  
  <!-- Gradient definition -->
  <defs>
    <linearGradient id="gradient" x1="0" y1="0" x2="1200" y2="630" gradientUnits="userSpaceOnUse">
      <stop offset="0%" stop-color="#4A90E2"/>
      <stop offset="100%" stop-color="#50C878"/>
    </linearGradient>
  </defs>
</svg>